<svg width="18" height="16" viewBox="0 0 18 16" fill="none" xmlns="http://www.w3.org/2000/svg">
<path d="M16.9712 4.79862L16.9711 4.79866L16.9712 4.79862ZM16.9712 4.79862L16.9687 4.79644M16.9712 4.79862L16.9687 4.79644M16.9687 4.79644L13.6668 1.86178C13.6667 1.86163 13.6665 1.86147 13.6663 1.86132C13.6267 1.82532 13.5805 1.79737 13.5302 1.77898L13.5295 1.77873M16.9687 4.79644L13.5295 1.77873M13.5295 1.77873L11.1408 0.924939C11.1407 0.924912 11.1406 0.924885 11.1406 0.924858C10.9257 0.846979 10.6884 0.957981 10.6104 1.17279C10.5963 1.21158 10.5881 1.2522 10.5861 1.29334L10.5859 1.29333M13.5295 1.77873L10.5859 1.29333M10.5859 1.29333V1.29836M10.5859 1.29333V1.29836M10.5859 1.29836C10.5859 1.29814 10.5859 1.29993 10.5857 1.30435L10.5847 1.32099C10.5836 1.33497 10.5819 1.35417 10.5791 1.37784C10.5735 1.4252 10.5637 1.48996 10.5472 1.56618C10.514 1.719 10.4541 1.91553 10.3475 2.1097C10.137 2.49325 9.74352 2.87189 8.99058 2.88429C8.23268 2.87189 7.8377 2.493 7.62652 2.10957C7.41166 1.71946 7.38698 1.3221 7.3857 1.29381L7.38565 1.29301M10.5859 1.29836L7.38565 1.29301M7.38565 1.29301C7.37344 1.06471 7.17846 0.889559 6.95017 0.90177L6.95011 0.901773C6.91096 0.903891 6.87221 0.911539 6.83508 0.924592L6.83508 0.924588L6.83421 0.924901L4.44814 1.78828L4.44781 1.7884C4.39749 1.80681 4.35126 1.83478 4.31161 1.87082L1.03115 4.79655L1.03112 4.79651L1.02884 4.79868C0.86311 4.95613 0.856371 5.21815 1.01382 5.38389M7.38565 1.29301L1.01382 5.38389M1.01382 5.38389C1.01831 5.38863 1.02293 5.39326 1.02764 5.39778L3.60983 8.0079V15.1878C3.60983 15.4164 3.79518 15.6017 4.02379 15.6017H13.9762C14.2048 15.6017 14.3902 15.4164 14.3902 15.1878V8.0079L16.9724 5.39777C17.1369 5.24018 17.1432 4.97908 16.9862 4.81371L1.01382 5.38389ZM13.5528 5.61526V14.7581H4.42519V5.61526C4.42519 5.38665 4.23984 5.2013 4.01123 5.2013C3.78262 5.2013 3.59728 5.38665 3.59728 5.61526V6.83151L1.91138 5.12369L4.80753 2.53176L6.64739 1.86753C6.95069 3.11161 8.18163 3.91013 9.45204 3.66356C10.3803 3.4834 11.1141 2.7792 11.3369 1.86752L13.1767 2.53173L16.0636 5.12357L14.3807 6.82837V5.61526C14.3807 5.38665 14.1954 5.2013 13.9668 5.2013C13.7382 5.2013 13.5528 5.38665 13.5528 5.61526Z" fill="#212121" stroke="#212121" stroke-width="0.2"/>
</svg>
