<svg width="167" height="48" viewBox="0 0 167 48" fill="none" xmlns="http://www.w3.org/2000/svg">
<rect width="167" height="48" fill="#212121"/>
<path d="M35.9249 24.3721C35.9402 23.1917 36.2538 22.0344 36.8366 21.0077C37.4193 19.9811 38.2522 19.1185 39.2579 18.5001C38.6188 17.5877 37.7759 16.8368 36.796 16.307C35.8161 15.7773 34.7262 15.4832 33.6129 15.4481C31.2389 15.1981 28.9349 16.8691 27.7259 16.8691C26.4919 16.8691 24.6259 15.4691 22.6259 15.5131C21.3279 15.5548 20.063 15.9322 18.9543 16.6083C17.8457 17.2844 16.9311 18.2363 16.2999 19.3711C13.5649 24.1071 15.5999 31.0661 18.2259 34.8941C19.5369 36.7701 21.0688 38.8621 23.0738 38.7881C25.0358 38.7081 25.7679 37.5391 28.1359 37.5391C30.4809 37.5391 31.1698 38.7881 33.2138 38.7391C35.3188 38.7061 36.6449 36.8561 37.9139 34.9641C38.8532 33.6281 39.5751 32.1519 40.0529 30.5901C38.8303 30.0722 37.7871 29.2062 37.0529 28.0999C36.3188 26.9936 35.9261 25.6959 35.9239 24.3681L35.9249 24.3721ZM32.0619 12.9301C33.21 11.5528 33.7757 9.78202 33.6389 7.99414C31.8854 8.17868 30.2656 9.01658 29.1018 10.3411C28.5329 10.9883 28.0972 11.7413 27.8195 12.5571C27.5419 13.3728 27.4278 14.2353 27.4839 15.0951C28.361 15.1039 29.2287 14.9137 30.0216 14.5387C30.8146 14.1637 31.5122 13.6137 32.0619 12.9301V12.9301Z" fill="white"/>
<path d="M70.1635 38.5035H67.4226L65.9226 33.7845H60.7025L59.2726 38.5035H56.6016L61.7746 22.4385H64.9685L70.1635 38.5035ZM65.4635 31.8035L64.1056 27.6085C63.9616 27.1799 63.6916 26.1712 63.2956 24.5825H63.2476C63.0883 25.2658 62.8339 26.2745 62.4846 27.6085L61.1496 31.8035H65.4635ZM83.4356 32.5675C83.5294 34.2743 82.9531 35.9503 81.8296 37.2385C81.3771 37.7323 80.8246 38.1238 80.2088 38.3869C79.593 38.6501 78.9281 38.7788 78.2586 38.7645C77.6099 38.8177 76.9589 38.6929 76.3759 38.4033C75.793 38.1138 75.3001 37.6706 74.9505 37.1215V43.1995H72.3766V30.7275C72.3766 29.4902 72.3432 28.2212 72.2766 26.9205H74.5396L74.6836 28.7565H74.7315C75.1213 28.1591 75.6453 27.6611 76.2617 27.3022C76.8781 26.9433 77.5699 26.7333 78.2818 26.6891C78.9938 26.6449 79.7061 26.7677 80.3622 27.0476C81.0183 27.3276 81.5999 27.7569 82.0606 28.3015C83.0203 29.5112 83.5107 31.0269 83.4416 32.5695L83.4356 32.5675ZM80.8136 32.6615C80.8537 31.675 80.5872 30.7003 80.0506 29.8715C79.8019 29.5095 79.4668 29.2154 79.0756 29.0158C78.6844 28.8162 78.2496 28.7174 77.8106 28.7285C77.1785 28.7283 76.5667 28.9518 76.0836 29.3595C75.5672 29.7805 75.2099 30.365 75.0706 31.0165C74.9998 31.2722 74.9595 31.5354 74.9505 31.8005V33.7335C74.9297 34.5173 75.2067 35.2798 75.7256 35.8675C75.9764 36.152 76.287 36.3775 76.6352 36.5279C76.9833 36.6783 77.3605 36.7499 77.7395 36.7375C78.1803 36.755 78.6185 36.6617 79.0138 36.466C79.4092 36.2703 79.7491 35.9786 80.0025 35.6175C80.5814 34.7445 80.8672 33.7099 80.8186 32.6635L80.8136 32.6615ZM96.7586 32.5675C96.8522 34.2743 96.276 35.9502 95.1526 37.2385C94.6999 37.7322 94.1472 38.1237 93.5312 38.3869C92.9153 38.65 92.2502 38.7788 91.5805 38.7645C90.9318 38.8177 90.2809 38.6929 89.698 38.4033C89.115 38.1138 88.6221 37.6706 88.2726 37.1215V43.1995H85.6986V30.7275C85.6986 29.4902 85.6652 28.2212 85.5985 26.9205H87.8615L88.0056 28.7565H88.0536C88.4436 28.1593 88.9678 27.6615 89.5843 27.3027C90.2007 26.9438 90.8925 26.734 91.6044 26.6898C92.3163 26.6456 93.0287 26.7683 93.6848 27.0481C94.341 27.3279 94.9227 27.7571 95.3836 28.3015C96.3424 29.5116 96.8324 31.0271 96.7636 32.5695L96.7586 32.5675ZM94.1355 32.6615C94.1755 31.6749 93.9086 30.7002 93.3716 29.8715C93.1233 29.5096 92.7886 29.2154 92.3977 29.0158C92.0069 28.8162 91.5723 28.7174 91.1336 28.7285C90.5006 28.7286 89.8879 28.952 89.4035 29.3595C88.8876 29.7807 88.5306 30.3651 88.3916 31.0165C88.3211 31.2723 88.2805 31.5354 88.2705 31.8005V33.7335C88.2504 34.517 88.5269 35.2791 89.0446 35.8675C89.2959 36.152 89.6068 36.3775 89.9553 36.5279C90.3038 36.6783 90.6812 36.7498 91.0606 36.7375C91.5014 36.7552 91.9395 36.6619 92.3349 36.4662C92.7303 36.2705 93.0703 35.9787 93.3236 35.6175C93.9031 34.7448 94.1896 33.7101 94.1416 32.6635L94.1355 32.6615ZM111.656 33.9955C111.676 34.6225 111.559 35.2463 111.312 35.823C111.065 36.3997 110.695 36.9153 110.228 37.3335C108.997 38.3339 107.435 38.8357 105.852 38.7395C104.398 38.8093 102.955 38.4623 101.692 37.7395L102.292 35.5945C103.416 36.2611 104.702 36.6069 106.01 36.5945C106.817 36.6436 107.616 36.4122 108.273 35.9395C108.536 35.7318 108.746 35.4652 108.887 35.1613C109.029 34.8573 109.096 34.5245 109.086 34.1895C109.092 33.8842 109.036 33.5808 108.921 33.298C108.806 33.0151 108.634 32.7587 108.417 32.5445C107.771 31.9831 107.017 31.5612 106.201 31.3055C103.388 30.2562 101.981 28.7229 101.981 26.7055C101.966 26.0875 102.093 25.4744 102.351 24.9127C102.609 24.3511 102.992 23.8558 103.471 23.4645C104.589 22.5794 105.991 22.1303 107.416 22.2005C108.675 22.1565 109.926 22.4183 111.063 22.9635L110.417 25.0635C109.466 24.5609 108.404 24.3067 107.33 24.3245C106.562 24.2789 105.804 24.5166 105.201 24.9925C104.994 25.1744 104.83 25.3987 104.719 25.65C104.607 25.9012 104.551 26.1736 104.555 26.4485C104.549 26.7499 104.613 27.0484 104.741 27.3211C104.87 27.5939 105.059 27.8335 105.295 28.0215C106.002 28.556 106.79 28.9743 107.63 29.2605C108.783 29.6671 109.827 30.3356 110.68 31.2135C111.343 31.9861 111.693 32.9794 111.661 33.9975L111.656 33.9955ZM120.188 28.8495H117.351V34.4735C117.351 35.9042 117.851 36.6189 118.851 36.6175C119.235 36.6263 119.619 36.5859 119.994 36.4975L120.065 38.4515C119.42 38.6622 118.743 38.7587 118.065 38.7365C117.624 38.761 117.183 38.6905 116.771 38.5299C116.36 38.3693 115.988 38.1223 115.681 37.8055C115.022 36.9044 114.717 35.7934 114.823 34.6825V28.8435H113.142V26.9115H114.832V24.7905L117.36 24.0275V26.9115H120.197L120.188 28.8495ZM132.962 32.6145C133.027 34.2166 132.484 35.784 131.442 37.0025C130.906 37.5882 130.249 38.0496 129.516 38.3544C128.783 38.6591 127.993 38.7998 127.2 38.7665C126.44 38.8001 125.682 38.6662 124.979 38.3741C124.277 38.0821 123.648 37.6391 123.136 37.0765C122.108 35.8981 121.567 34.3731 121.622 32.8105C121.557 31.195 122.116 29.6164 123.183 28.4015C123.718 27.8275 124.371 27.3767 125.098 27.0803C125.824 26.784 126.607 26.6493 127.391 26.6855C128.156 26.6542 128.918 26.7892 129.626 27.0813C130.334 27.3735 130.97 27.8157 131.491 28.3775C132.506 29.5504 133.036 31.0673 132.97 32.6175L132.962 32.6145ZM130.294 32.6735C130.321 31.7164 130.082 30.7705 129.605 29.9405C129.386 29.5174 129.054 29.1638 128.645 28.9199C128.236 28.676 127.767 28.5515 127.292 28.5605C126.808 28.5468 126.331 28.6689 125.914 28.9129C125.497 29.1568 125.157 29.5128 124.932 29.9405C124.449 30.786 124.21 31.7486 124.242 32.7215C124.214 33.6792 124.453 34.6257 124.932 35.4555C125.159 35.8749 125.496 36.2248 125.907 36.4678C126.318 36.7108 126.787 36.8379 127.264 36.8355C127.741 36.8331 128.209 36.7014 128.617 36.4544C129.025 36.2073 129.359 35.8542 129.583 35.4325C130.072 34.5978 130.32 33.6431 130.298 32.6755L130.294 32.6735ZM141.33 29.1815C141.062 29.1332 140.791 29.1095 140.519 29.1105C140.111 29.0911 139.704 29.175 139.337 29.3543C138.97 29.5337 138.654 29.8027 138.419 30.1365C137.97 30.8128 137.745 31.6133 137.777 32.4245V38.5025H135.203V30.5665C135.203 29.2332 135.178 28.0175 135.128 26.9195H137.37L137.464 29.1355H137.535C137.778 28.4127 138.225 27.7753 138.822 27.2995C139.359 26.8978 140.011 26.6804 140.682 26.6795C140.897 26.6784 141.112 26.6941 141.325 26.7265L141.33 29.1815ZM152.841 32.1615C152.847 32.5526 152.816 32.9435 152.747 33.3285H145.026C145.008 33.8213 145.1 34.3118 145.293 34.7653C145.487 35.2188 145.778 35.6241 146.146 35.9525C146.864 36.5142 147.759 36.8011 148.671 36.7615C149.737 36.7758 150.797 36.5903 151.795 36.2145L152.195 37.9995C150.963 38.503 149.641 38.7468 148.312 38.7155C147.535 38.7581 146.758 38.6394 146.03 38.3667C145.301 38.0941 144.637 37.6735 144.08 37.1315C143.554 36.5598 143.148 35.8892 142.884 35.1589C142.62 34.4286 142.504 33.6531 142.543 32.8775C142.486 31.3001 142.994 29.7543 143.975 28.5175C144.457 27.9118 145.074 27.428 145.778 27.1052C146.481 26.7824 147.251 26.6297 148.025 26.6595C148.763 26.6184 149.499 26.7677 150.163 27.0931C150.827 27.4184 151.397 27.9089 151.817 28.5175C152.527 29.5976 152.885 30.8714 152.842 32.1635L152.841 32.1615ZM150.387 31.4935C150.421 30.7987 150.247 30.1095 149.887 29.5145C149.674 29.1664 149.372 28.8826 149.01 28.6934C148.649 28.5043 148.244 28.4168 147.837 28.4405C147.435 28.4333 147.038 28.5252 146.681 28.7082C146.323 28.8912 146.016 29.1596 145.788 29.4895C145.349 30.0706 145.085 30.7642 145.026 31.4895L150.387 31.4935Z" fill="white"/>
<path d="M64.2275 15.305H62.8785L62.1406 12.986H59.5726L58.8726 15.305H57.5605L60.1025 7.405H61.6725L64.2275 15.305ZM61.9196 12.013L61.2516 9.951C61.1816 9.74 61.0516 9.251 60.8516 8.464H60.8276C60.7456 8.803 60.6276 9.296 60.4526 9.951L59.7975 12.013H61.9196ZM70.5845 9.613L68.4286 15.306H67.1985L65.1125 9.613H66.4725L67.4456 12.624C67.6096 13.124 67.7456 13.608 67.8546 14.064H67.8896C67.9836 13.655 68.1236 13.174 68.2986 12.624L69.2596 9.613H70.5845ZM75.1746 15.306L75.0806 14.65H75.0455C74.8548 14.9081 74.6031 15.1149 74.3129 15.2519C74.0227 15.3889 73.7031 15.4518 73.3826 15.435C73.156 15.4472 72.9293 15.4127 72.7166 15.3338C72.5039 15.2548 72.3096 15.1329 72.1459 14.9758C71.9822 14.8187 71.8526 14.6296 71.765 14.4203C71.6773 14.211 71.6336 13.9859 71.6365 13.759C71.6365 12.354 72.8546 11.627 74.9636 11.627V11.522C74.9636 10.772 74.5636 10.397 73.7806 10.397C73.2539 10.3875 72.7364 10.5348 72.2936 10.82L72.0366 9.988C72.6295 9.64275 73.3078 9.47186 73.9935 9.495C75.4805 9.495 76.2316 10.28 76.2316 11.85V13.95C76.2223 14.4045 76.2497 14.8589 76.3135 15.309L75.1746 15.306ZM74.9985 12.47C73.5925 12.47 72.8896 12.81 72.8896 13.618C72.8768 13.736 72.8902 13.8554 72.929 13.9676C72.9677 14.0798 73.0307 14.1821 73.1135 14.2671C73.1964 14.3521 73.297 14.4178 73.4081 14.4594C73.5193 14.5011 73.6382 14.5177 73.7565 14.508C74.0742 14.5164 74.3825 14.3996 74.6149 14.1828C74.8472 13.966 74.985 13.6665 74.9985 13.349V12.47ZM79.0486 8.67C78.9015 8.66142 78.7601 8.61004 78.6418 8.52219C78.5236 8.43433 78.4335 8.31384 78.3828 8.17551C78.3321 8.03717 78.3229 7.88703 78.3564 7.74355C78.3899 7.60006 78.4645 7.46948 78.5712 7.36787C78.6779 7.26625 78.8119 7.19802 78.9568 7.17157C79.1018 7.14512 79.2513 7.16159 79.387 7.21897C79.5227 7.27635 79.6387 7.37214 79.7207 7.49455C79.8027 7.61697 79.8472 7.76067 79.8486 7.908C79.8521 8.01256 79.8335 8.1167 79.7941 8.2136C79.7546 8.3105 79.6951 8.39797 79.6195 8.47028C79.5439 8.5426 79.4538 8.59812 79.3553 8.63322C79.2567 8.66833 79.1519 8.68222 79.0475 8.674L79.0486 8.67ZM79.7056 15.301H78.4406V9.612H79.7056V15.301ZM83.2186 15.301H81.9526V7H83.2175L83.2186 15.301ZM88.5956 15.301L88.5016 14.645H88.4666C88.2758 14.9033 88.0239 15.1102 87.7335 15.2472C87.4431 15.3842 87.1232 15.447 86.8026 15.43C86.576 15.4422 86.3493 15.4077 86.1366 15.3288C85.9239 15.2498 85.7297 15.1279 85.566 14.9708C85.4023 14.8137 85.2726 14.6246 85.1849 14.4153C85.0973 14.206 85.0536 13.9809 85.0566 13.754C85.0566 12.349 86.2745 11.622 88.3835 11.622V11.517C88.3835 10.767 87.9836 10.392 87.2006 10.392C86.6739 10.3826 86.1564 10.5298 85.7136 10.815L85.4556 9.98199C86.0485 9.63675 86.7268 9.46587 87.4125 9.489C88.8995 9.489 89.6506 10.274 89.6506 11.844V13.944C89.6423 14.3984 89.6694 14.8528 89.7316 15.303H88.5956V15.301ZM88.4196 12.465C87.0136 12.465 86.3105 12.805 86.3105 13.613C86.2978 13.731 86.3113 13.8504 86.35 13.9626C86.3887 14.0748 86.4517 14.1771 86.5345 14.2621C86.6174 14.3471 86.7179 14.4128 86.8291 14.4544C86.9403 14.4961 87.0592 14.5127 87.1776 14.503C87.4952 14.5114 87.8035 14.3946 88.0359 14.1778C88.2682 13.961 88.406 13.6615 88.4196 13.344V12.465ZM94.7726 15.434C94.4096 15.4513 94.0491 15.3659 93.7325 15.1876C93.4159 15.0093 93.1559 14.7453 92.9825 14.426H92.9576L92.8846 15.305H91.8066C91.8416 14.849 91.8536 14.332 91.8536 13.771V7H93.1196V10.445H93.1436C93.3286 10.1341 93.5965 9.88079 93.9171 9.71322C94.2378 9.54565 94.5986 9.47045 94.9595 9.496C96.3305 9.496 97.2916 10.668 97.2916 12.377C97.2946 14.145 96.2266 15.434 94.7726 15.434ZM94.5156 10.489C94.1306 10.5051 93.7676 10.6732 93.5063 10.9564C93.245 11.2397 93.1067 11.6149 93.1216 12V13C93.1177 13.184 93.1502 13.367 93.2172 13.5385C93.2841 13.7099 93.3842 13.8665 93.5117 13.9992C93.6392 14.132 93.7917 14.2382 93.9603 14.312C94.129 14.3857 94.3105 14.4255 94.4946 14.429C95.4426 14.429 96.0056 13.656 96.0056 12.429C96.0056 11.281 95.4176 10.495 94.5156 10.495V10.489ZM100.427 15.304H99.1625V7H100.427V15.304ZM107.314 12.762H103.514C103.505 12.995 103.546 13.2271 103.635 13.4427C103.724 13.6584 103.857 13.8525 104.027 14.0122C104.197 14.1719 104.399 14.2935 104.62 14.3686C104.84 14.4438 105.075 14.4708 105.307 14.448C105.83 14.4531 106.35 14.3619 106.841 14.179L107.041 15.058C106.435 15.3052 105.785 15.4247 105.132 15.409C104.749 15.4385 104.364 15.3843 104.004 15.2501C103.645 15.1159 103.318 14.9049 103.049 14.6319C102.779 14.3588 102.571 14.0302 102.441 13.669C102.311 13.3077 102.262 12.9224 102.296 12.54C102.257 12.1595 102.298 11.7751 102.415 11.411C102.532 11.0469 102.722 10.7108 102.975 10.4237C103.228 10.1367 103.537 9.90494 103.884 9.7429C104.23 9.58085 104.606 9.49203 104.989 9.48199C106.441 9.48199 107.356 10.56 107.356 12.188C107.365 12.38 107.351 12.5724 107.314 12.761V12.762ZM106.154 11.862C106.154 10.983 105.708 10.362 104.9 10.362C104.522 10.3915 104.17 10.5625 103.914 10.8407C103.657 11.1188 103.515 11.4836 103.517 11.862H106.154ZM114.983 15.435C114.605 15.4406 114.23 15.3671 113.883 15.2193C113.535 15.0716 113.222 14.8528 112.964 14.577C112.706 14.3012 112.508 13.9745 112.384 13.6179C112.259 13.2612 112.211 12.8825 112.242 12.506C112.208 12.1169 112.257 11.7251 112.385 11.3562C112.513 10.9873 112.718 10.6496 112.986 10.3654C113.254 10.0811 113.579 9.85664 113.939 9.70665C114.3 9.55666 114.688 9.48453 115.079 9.495C115.456 9.48631 115.831 9.55727 116.18 9.70325C116.528 9.84923 116.842 10.067 117.1 10.3422C117.359 10.6175 117.557 10.9442 117.681 11.301C117.804 11.6578 117.852 12.0367 117.82 12.413C117.852 12.8022 117.802 13.1938 117.674 13.5625C117.545 13.9313 117.341 14.269 117.074 14.5537C116.806 14.8385 116.482 15.064 116.123 15.2156C115.763 15.3672 115.375 15.4416 114.985 15.434L114.983 15.435ZM115.031 10.42C114.117 10.42 113.531 11.275 113.531 12.47C113.531 13.642 114.131 14.497 115.018 14.497C115.905 14.497 116.504 13.583 116.504 12.446C116.508 11.287 115.923 10.42 115.033 10.42H115.031ZM124.62 15.305H123.356V12.036C123.356 11.029 122.97 10.525 122.208 10.525C122.032 10.5312 121.86 10.5725 121.701 10.6463C121.541 10.7202 121.399 10.8252 121.281 10.9551C121.163 11.085 121.072 11.2372 121.014 11.4028C120.955 11.5683 120.931 11.7438 120.942 11.919V15.305H119.678V11.24C119.678 10.74 119.665 10.197 119.631 9.612H120.744L120.803 10.491H120.838C121.022 10.1799 121.286 9.92334 121.602 9.74764C121.919 9.57195 122.276 9.48338 122.638 9.491C123.832 9.491 124.617 10.405 124.617 11.891V15.301L124.62 15.305ZM132.898 10.561H131.506V13.325C131.506 14.029 131.751 14.3807 132.242 14.38C132.431 14.3817 132.62 14.3619 132.805 14.321L132.84 15.282C132.523 15.3868 132.19 15.4346 131.857 15.423C130.857 15.423 130.265 14.873 130.265 13.431V10.564H129.434V9.615H130.265V8.569L131.506 8.194V9.611H132.898V10.561ZM139.598 15.305H138.333V12.064C138.333 11.045 137.947 10.53 137.185 10.53C137.01 10.5258 136.837 10.5585 136.676 10.6258C136.515 10.6931 136.371 10.7937 136.251 10.9208C136.132 11.048 136.041 11.1988 135.984 11.3636C135.927 11.5284 135.905 11.7033 135.921 11.877V15.309H134.655V7H135.921V10.42H135.945C136.121 10.1269 136.373 9.88652 136.674 9.72368C136.975 9.56084 137.314 9.48153 137.656 9.494C138.862 9.494 139.599 10.431 139.599 11.919L139.598 15.305ZM146.062 12.763H142.262C142.253 12.996 142.294 13.2281 142.382 13.4438C142.471 13.6596 142.604 13.8538 142.774 14.0136C142.944 14.1733 143.146 14.2949 143.367 14.37C143.587 14.4451 143.822 14.472 144.054 14.449C144.577 14.4542 145.097 14.363 145.588 14.18L145.788 15.059C145.182 15.3062 144.532 15.4257 143.878 15.41C143.495 15.4395 143.11 15.3853 142.75 15.2511C142.391 15.1169 142.064 14.9059 141.795 14.6329C141.525 14.3598 141.317 14.0312 141.187 13.67C141.057 13.3087 141.008 12.9234 141.042 12.541C141.003 12.1605 141.044 11.7762 141.161 11.4121C141.278 11.0481 141.469 10.712 141.722 10.425C141.974 10.1381 142.284 9.90628 142.63 9.74419C142.976 9.5821 143.352 9.49319 143.735 9.483C145.187 9.483 146.102 10.561 146.102 12.189C146.111 12.3815 146.099 12.5745 146.064 12.764L146.062 12.763ZM144.902 11.863C144.902 10.984 144.458 10.363 143.649 10.363C143.271 10.3925 142.919 10.5635 142.663 10.8417C142.406 11.1198 142.264 11.4846 142.266 11.863H144.902Z" fill="white"/>
</svg>
