<svg width="161" height="48" viewBox="0 0 161 48" fill="none" xmlns="http://www.w3.org/2000/svg">
<rect width="161" height="48" fill="#212121"/>
<path d="M33.724 20.5414L27.448 16.9184L14 9.14844V9.26044L29.548 24.6824L33.724 20.5414Z" fill="#00F076"/>
<path d="M14 9.26562V40.0986L29.548 24.6826L14 9.26562Z" fill="#00D2FF"/>
<path d="M14 40.0976V40.2096L27.448 32.4466L33.724 28.8236L29.549 24.6836L14 40.0976Z" fill="#FC3845"/>
<path d="M33.7248 20.541L29.5488 24.682L33.7238 28.822L40.8968 24.681L33.7248 20.541Z" fill="#FFC900"/>
<path d="M59.6709 15.305H58.3219L57.5839 12.986H55.0159L54.3159 15.305H53.0039L55.5459 7.405H57.1159L59.6709 15.305ZM57.3629 12.013L56.6949 9.951C56.6249 9.74 56.4949 9.251 56.2949 8.464H56.2709C56.1889 8.803 56.0709 9.296 55.8959 9.951L55.2409 12.013H57.3629ZM66.0279 9.613L63.8719 15.306H62.6419L60.5559 9.613H61.9159L62.8889 12.624C63.0529 13.124 63.1889 13.608 63.2979 14.064H63.3329C63.4269 13.655 63.5669 13.174 63.7419 12.624L64.7029 9.613H66.0279ZM70.6179 15.306L70.5239 14.65H70.4889C70.2982 14.9081 70.0465 15.1149 69.7563 15.2519C69.4661 15.3889 69.1464 15.4518 68.8259 15.435C68.5993 15.4472 68.3727 15.4127 68.16 15.3338C67.9473 15.2548 67.753 15.1329 67.5893 14.9758C67.4256 14.8187 67.2959 14.6296 67.2083 14.4203C67.1207 14.211 67.077 13.9859 67.0799 13.759C67.0799 12.354 68.2979 11.627 70.4069 11.627V11.522C70.4069 10.772 70.0069 10.397 69.2239 10.397C68.6973 10.3875 68.1797 10.5348 67.7369 10.82L67.4799 9.988C68.0729 9.64275 68.7512 9.47186 69.4369 9.495C70.9239 9.495 71.6749 10.28 71.6749 11.85V13.95C71.6657 14.4045 71.6931 14.8589 71.7569 15.309L70.6179 15.306ZM70.4419 12.47C69.0359 12.47 68.3329 12.81 68.3329 13.618C68.3202 13.736 68.3336 13.8554 68.3723 13.9676C68.411 14.0798 68.4741 14.1821 68.5569 14.2671C68.6397 14.3521 68.7403 14.4178 68.8515 14.4594C68.9627 14.5011 69.0816 14.5177 69.1999 14.508C69.5176 14.5164 69.8259 14.3996 70.0582 14.1828C70.2906 13.966 70.4284 13.6665 70.4419 13.349V12.47ZM74.4919 8.67C74.3449 8.66142 74.2035 8.61004 74.0852 8.52219C73.9669 8.43433 73.8769 8.31384 73.8262 8.17551C73.7755 8.03717 73.7663 7.88703 73.7997 7.74355C73.8332 7.60006 73.9078 7.46948 74.0145 7.36787C74.1212 7.26625 74.2553 7.19802 74.4002 7.17157C74.5452 7.14512 74.6947 7.16159 74.8304 7.21897C74.9661 7.27635 75.0821 7.37214 75.1641 7.49455C75.2461 7.61697 75.2905 7.76067 75.2919 7.908C75.2955 8.01256 75.2769 8.1167 75.2374 8.2136C75.198 8.3105 75.1385 8.39797 75.0629 8.47028C74.9872 8.5426 74.8972 8.59812 74.7986 8.63322C74.7001 8.66833 74.5952 8.68222 74.4909 8.674L74.4919 8.67ZM75.1489 15.301H73.8839V9.612H75.1489V15.301ZM78.6619 15.301H77.3959V7H78.6609L78.6619 15.301ZM84.0389 15.301L83.9449 14.645H83.9099C83.7191 14.9033 83.4672 15.1102 83.1768 15.2472C82.8864 15.3842 82.5666 15.447 82.2459 15.43C82.0193 15.4422 81.7927 15.4077 81.58 15.3288C81.3672 15.2498 81.173 15.1279 81.0093 14.9708C80.8456 14.8137 80.7159 14.6246 80.6283 14.4153C80.5407 14.206 80.497 13.9809 80.4999 13.754C80.4999 12.349 81.7179 11.622 83.8269 11.622V11.517C83.8269 10.767 83.4269 10.392 82.6439 10.392C82.1173 10.3826 81.5997 10.5298 81.1569 10.815L80.8989 9.98199C81.4919 9.63675 82.1702 9.46587 82.8559 9.489C84.3429 9.489 85.0939 10.274 85.0939 11.844V13.944C85.0857 14.3984 85.1128 14.8528 85.1749 15.303H84.0389V15.301ZM83.8629 12.465C82.4569 12.465 81.7539 12.805 81.7539 13.613C81.7411 13.731 81.7546 13.8504 81.7933 13.9626C81.8321 14.0748 81.8951 14.1771 81.9779 14.2621C82.0607 14.3471 82.1613 14.4128 82.2725 14.4544C82.3836 14.4961 82.5026 14.5127 82.6209 14.503C82.9386 14.5114 83.2469 14.3946 83.4792 14.1778C83.7116 13.961 83.8494 13.6615 83.8629 13.344V12.465ZM90.2159 15.434C89.853 15.4513 89.4925 15.3659 89.1758 15.1876C88.8592 15.0093 88.5993 14.7453 88.4259 14.426H88.4009L88.3279 15.305H87.2499C87.2849 14.849 87.2969 14.332 87.2969 13.771V7H88.5629V10.445H88.5869C88.772 10.1341 89.0398 9.88079 89.3605 9.71322C89.6811 9.54565 90.042 9.47045 90.4029 9.496C91.7739 9.496 92.7349 10.668 92.7349 12.377C92.7379 14.145 91.6699 15.434 90.2159 15.434ZM89.9589 10.489C89.5739 10.5051 89.211 10.6732 88.9497 10.9564C88.6884 11.2397 88.55 11.6149 88.5649 12V13C88.5611 13.184 88.5936 13.367 88.6605 13.5385C88.7275 13.7099 88.8276 13.8665 88.9551 13.9992C89.0826 14.132 89.235 14.2382 89.4037 14.312C89.5723 14.3857 89.7539 14.4255 89.9379 14.429C90.8859 14.429 91.4489 13.656 91.4489 12.429C91.4489 11.281 90.8609 10.495 89.9589 10.495V10.489ZM95.8699 15.304H94.6059V7H95.8699V15.304ZM102.757 12.762H98.9569C98.9484 12.995 98.9898 13.2271 99.0784 13.4427C99.1669 13.6584 99.3006 13.8525 99.4705 14.0122C99.6403 14.1719 99.8424 14.2935 100.063 14.3686C100.284 14.4438 100.518 14.4708 100.75 14.448C101.273 14.4531 101.793 14.3619 102.284 14.179L102.484 15.058C101.879 15.3052 101.229 15.4247 100.575 15.409C100.192 15.4385 99.8074 15.3843 99.4477 15.2501C99.088 15.1159 98.7618 14.9049 98.4919 14.6319C98.222 14.3588 98.0148 14.0302 97.8848 13.669C97.7547 13.3077 97.7049 12.9224 97.7389 12.54C97.7005 12.1595 97.7411 11.7751 97.858 11.411C97.975 11.0469 98.1658 10.7108 98.4186 10.4237C98.6713 10.1367 98.9806 9.90494 99.327 9.7429C99.6735 9.58085 100.05 9.49203 100.432 9.48199C101.884 9.48199 102.799 10.56 102.799 12.188C102.808 12.38 102.794 12.5724 102.757 12.761V12.762ZM101.597 11.862C101.597 10.983 101.151 10.362 100.343 10.362C99.9657 10.3915 99.6136 10.5625 99.3571 10.8407C99.1006 11.1188 98.9587 11.4836 98.9599 11.862H101.597ZM110.426 15.435C110.048 15.4406 109.674 15.3671 109.326 15.2193C108.978 15.0716 108.665 14.8528 108.407 14.577C108.149 14.3012 107.952 13.9745 107.827 13.6179C107.703 13.2612 107.654 12.8825 107.685 12.506C107.651 12.1169 107.7 11.7251 107.828 11.3562C107.957 10.9873 108.161 10.6496 108.429 10.3654C108.697 10.0811 109.022 9.85664 109.383 9.70665C109.743 9.55666 110.131 9.48453 110.522 9.495C110.9 9.48631 111.275 9.55727 111.623 9.70325C111.971 9.84923 112.285 10.067 112.544 10.3422C112.802 10.6175 113 10.9442 113.124 11.301C113.248 11.6578 113.295 12.0367 113.263 12.413C113.295 12.8022 113.246 13.1938 113.117 13.5625C112.989 13.9313 112.784 14.269 112.517 14.5537C112.25 14.8385 111.926 15.064 111.566 15.2156C111.206 15.3672 110.818 15.4416 110.428 15.434L110.426 15.435ZM110.474 10.42C109.56 10.42 108.974 11.275 108.974 12.47C108.974 13.642 109.574 14.497 110.461 14.497C111.348 14.497 111.947 13.583 111.947 12.446C111.951 11.287 111.366 10.42 110.476 10.42H110.474ZM120.063 15.305H118.799V12.036C118.799 11.029 118.413 10.525 117.651 10.525C117.476 10.5312 117.303 10.5725 117.144 10.6463C116.985 10.7202 116.842 10.8252 116.724 10.9551C116.606 11.085 116.515 11.2372 116.457 11.4028C116.399 11.5683 116.374 11.7438 116.385 11.919V15.305H115.121V11.24C115.121 10.74 115.108 10.197 115.074 9.612H116.187L116.246 10.491H116.281C116.466 10.1799 116.729 9.92334 117.046 9.74764C117.362 9.57195 117.719 9.48338 118.081 9.491C119.275 9.491 120.06 10.405 120.06 11.891V15.301L120.063 15.305ZM128.341 10.561H126.949V13.325C126.949 14.029 127.194 14.3807 127.685 14.38C127.874 14.3817 128.063 14.3619 128.248 14.321L128.283 15.282C127.966 15.3868 127.633 15.4346 127.3 15.423C126.3 15.423 125.708 14.873 125.708 13.431V10.564H124.877V9.615H125.708V8.569L126.949 8.194V9.611H128.341V10.561ZM135.041 15.305H133.776V12.064C133.776 11.045 133.39 10.53 132.628 10.53C132.454 10.5258 132.28 10.5585 132.12 10.6258C131.959 10.6931 131.814 10.7937 131.695 10.9208C131.575 11.048 131.484 11.1988 131.427 11.3636C131.37 11.5284 131.349 11.7033 131.364 11.877V15.309H130.098V7H131.364V10.42H131.388C131.564 10.1269 131.816 9.88652 132.117 9.72368C132.418 9.56084 132.757 9.48153 133.099 9.494C134.305 9.494 135.042 10.431 135.042 11.919L135.041 15.305ZM141.505 12.763H137.705C137.696 12.996 137.737 13.2281 137.826 13.4438C137.914 13.6596 138.048 13.8538 138.217 14.0136C138.387 14.1733 138.589 14.2949 138.81 14.37C139.031 14.4451 139.265 14.472 139.497 14.449C140.02 14.4542 140.54 14.363 141.031 14.18L141.231 15.059C140.625 15.3062 139.975 15.4257 139.321 15.41C138.938 15.4395 138.553 15.3853 138.194 15.2511C137.834 15.1169 137.508 14.9059 137.238 14.6329C136.968 14.3598 136.761 14.0312 136.631 13.67C136.501 13.3087 136.451 12.9234 136.485 12.541C136.447 12.1605 136.487 11.7762 136.604 11.4121C136.721 11.0481 136.912 10.712 137.165 10.425C137.418 10.1381 137.727 9.90628 138.073 9.74419C138.42 9.5821 138.796 9.49319 139.178 9.483C140.63 9.483 141.545 10.561 141.545 12.189C141.555 12.3815 141.542 12.5745 141.507 12.764L141.505 12.763ZM140.345 11.863C140.345 10.984 139.901 10.363 139.092 10.363C138.715 10.3925 138.363 10.5635 138.106 10.8417C137.85 11.1198 137.708 11.4846 137.709 11.863H140.345Z" fill="white"/>
<path d="M120.781 38.1348C120.209 38.1423 119.641 38.0277 119.116 37.7988C118.611 37.5718 118.174 37.2146 117.851 36.7638H117.751C117.817 37.2779 117.85 37.7956 117.851 38.3138V42.1528H116.441V28.6318H117.59L117.79 29.9098H117.858C118.178 29.4369 118.615 29.0554 119.127 28.8028C119.649 28.568 120.216 28.4519 120.787 28.4628C121.331 28.4331 121.875 28.5326 122.373 28.7532C122.871 28.9738 123.31 29.3091 123.653 29.7318C124.384 30.7691 124.741 32.0243 124.663 33.2908C124.742 34.5643 124.38 35.826 123.637 36.8638C123.295 37.2842 122.859 37.6183 122.364 37.8392C121.87 38.0601 121.33 38.1618 120.788 38.1358L120.781 38.1348ZM120.581 29.6628C120.199 29.627 119.813 29.6798 119.454 29.8172C119.096 29.9545 118.773 30.1727 118.512 30.4548C118.024 31.2008 117.793 32.0864 117.856 32.9758V33.2908C117.772 34.2746 118.002 35.2598 118.512 36.1048C118.771 36.402 119.095 36.6338 119.461 36.7812C119.826 36.9286 120.22 36.9874 120.612 36.9528C120.986 36.9659 121.357 36.8827 121.69 36.7113C122.023 36.5399 122.306 36.286 122.512 35.9738C123.012 35.1651 123.251 34.2227 123.197 33.2738C123.258 32.3312 123.018 31.3937 122.512 30.5958C122.293 30.2915 122.001 30.0468 121.663 29.8839C121.325 29.7209 120.952 29.645 120.577 29.6628H120.581ZM127.932 37.9628H126.518V24.7148H127.932V37.9638V37.9628ZM136.058 37.9628L135.777 36.6348H135.709C135.346 37.1354 134.869 37.5425 134.317 37.8228C133.768 38.0467 133.177 38.1526 132.584 38.1338C131.795 38.1801 131.017 37.9245 130.409 37.4188C130.139 37.1568 129.928 36.8391 129.792 36.4878C129.656 36.1365 129.598 35.7598 129.621 35.3838C129.621 33.4992 131.128 32.5115 134.142 32.4208L135.726 32.3698V31.7908C135.774 31.2102 135.605 30.6324 135.252 30.1688C135.052 29.9791 134.814 29.8342 134.553 29.7439C134.292 29.6535 134.015 29.6198 133.74 29.6448C132.818 29.6825 131.916 29.9268 131.101 30.3598L130.667 29.2788C131.145 29.0221 131.653 28.8249 132.179 28.6918C132.717 28.5512 133.271 28.4796 133.827 28.4788C134.716 28.4069 135.598 28.6714 136.3 29.2198C136.592 29.5381 136.814 29.914 136.952 30.3232C137.09 30.7324 137.14 31.1659 137.1 31.5958V37.9648H136.053L136.058 37.9628ZM132.865 36.9628C133.625 37.0058 134.371 36.7458 134.939 36.2398C135.199 35.973 135.4 35.6549 135.53 35.3058C135.66 34.9568 135.716 34.5846 135.693 34.2128V33.3748L134.279 33.4338C133.438 33.4069 132.603 33.5872 131.848 33.9588C131.605 34.1092 131.408 34.3228 131.277 34.5768C131.146 34.8308 131.086 35.1156 131.104 35.4008C131.09 35.6175 131.124 35.8348 131.204 36.0366C131.284 36.2384 131.409 36.4196 131.568 36.5668C131.938 36.8545 132.401 36.9968 132.868 36.9668L132.865 36.9628ZM137.926 28.6268H139.441L141.485 33.9488C141.823 34.8061 142.102 35.6855 142.32 36.5808H142.388C142.462 36.2908 142.617 35.7952 142.852 35.0938C143.088 34.3925 143.858 32.2368 145.163 28.6268H146.679L142.668 39.2528C142.4 40.1035 141.921 40.8726 141.275 41.4888C140.724 41.9354 140.031 42.1692 139.321 42.1478C138.891 42.1478 138.463 42.0992 138.043 42.0028V40.8768C138.388 40.9474 138.74 40.981 139.091 40.9768C139.57 40.973 140.033 40.8103 140.409 40.5144C140.785 40.2184 141.052 39.806 141.168 39.3418L141.687 38.0138L137.926 28.6288V28.6268Z" fill="white"/>
<path d="M94.5998 29.4984C95.0476 29.8046 95.4097 30.2202 95.6516 30.7058C95.8934 31.1914 96.007 31.7308 95.9816 32.2728C95.9561 32.8147 95.7924 33.3411 95.5061 33.8018C95.2198 34.2626 94.8203 34.6425 94.3458 34.9054C94.1935 35.0185 94.0662 35.1619 93.9721 35.3266C93.8779 35.4913 93.8189 35.6737 93.7988 35.8624C93.8105 36.0325 93.8626 36.1973 93.9507 36.3432C94.0389 36.4891 94.1606 36.6119 94.3058 36.7014L95.0058 37.2474C95.4815 37.5344 95.8796 37.9335 96.1653 38.41C96.451 38.8864 96.6156 39.4256 96.6448 39.9804C96.6448 41.8154 94.8678 43.6694 91.5118 43.6694C88.6808 43.6694 87.3118 42.3224 87.3118 40.8774C87.3302 40.3836 87.4786 39.9035 87.742 39.4854C88.0053 39.0674 88.3744 38.7262 88.8118 38.4964C89.9688 37.9139 91.2445 37.6059 92.5398 37.5964C92.1894 37.241 91.981 36.7697 91.9538 36.2714C91.9617 36.0055 92.0301 35.7449 92.1538 35.5094C91.9388 35.5294 91.7238 35.5484 91.5288 35.5484C91.1126 35.5692 90.6965 35.5055 90.3056 35.3611C89.9147 35.2168 89.5571 34.9947 89.2543 34.7084C88.9516 34.4221 88.7099 34.0774 88.544 33.6952C88.378 33.313 88.2912 32.9011 88.2888 32.4844C88.2986 31.9845 88.4152 31.4926 88.6306 31.0414C88.846 30.5903 89.1553 30.1903 89.5378 29.8684C90.5407 29.1077 91.7808 28.7272 93.0378 28.7944H97.0578L95.8088 29.4944H94.5998V29.4984ZM93.2138 38.1654C93.0651 38.148 92.9154 38.1413 92.7658 38.1454C92.0711 38.1579 91.3813 38.2635 90.7148 38.4594C90.2558 38.5689 89.8444 38.8237 89.5419 39.1859C89.2394 39.5481 89.0619 39.9982 89.0358 40.4694C89.0358 41.8534 90.3838 42.8504 92.4728 42.8504C94.3448 42.8504 95.3418 41.9504 95.3418 40.7414C95.3418 39.7414 94.6978 39.2194 93.2138 38.1654ZM93.7798 34.4564C94.1241 34.0644 94.2992 33.5521 94.2668 33.0314C94.2668 31.6264 93.4278 29.4404 91.8088 29.4404C91.5479 29.444 91.2909 29.5034 91.0549 29.6147C90.8189 29.7259 90.6095 29.8864 90.4408 30.0854C90.1363 30.5036 89.9845 31.0137 90.0108 31.5304C90.0108 32.8374 90.7728 35.0044 92.4518 35.0044C92.9469 34.9928 93.4201 34.7978 93.7798 34.4574V34.4564ZM82.3118 37.8564C81.6948 37.8772 81.0799 37.7736 80.5038 37.5517C79.9277 37.3299 79.4021 36.9944 78.9584 36.5651C78.5147 36.1359 78.1619 35.6217 77.9211 35.0533C77.6803 34.4848 77.5564 33.8737 77.5568 33.2564C77.5685 32.6113 77.7095 31.9751 77.9713 31.3854C78.233 30.7957 78.6104 30.2644 79.081 29.823C79.5516 29.3816 80.1058 29.039 80.7111 28.8154C81.3163 28.5918 81.9602 28.4919 82.6048 28.5214C83.2152 28.5079 83.8221 28.6173 84.3894 28.843C84.9568 29.0687 85.473 29.4061 85.9074 29.8352C86.3418 30.2643 86.6855 30.7763 86.9182 31.3408C87.1508 31.9053 87.2677 32.5108 87.2618 33.1214C87.2586 33.7606 87.1268 34.3926 86.8743 34.9798C86.6217 35.567 86.2534 36.0974 85.7915 36.5392C85.3296 36.9811 84.7834 37.3254 84.1856 37.5517C83.5878 37.778 82.9505 37.8816 82.3118 37.8564V37.8564ZM84.7508 36.2744C85.1769 35.6359 85.3827 34.8756 85.3368 34.1094C85.3368 32.3944 84.5188 29.1204 82.1018 29.1204C81.4571 29.1264 80.8356 29.3618 80.3488 29.7844C80.0309 30.0885 79.785 30.4599 79.6293 30.8714C79.4736 31.2829 79.4119 31.724 79.4488 32.1624C79.4488 34.0904 80.4038 37.2624 82.7628 37.2624C83.148 37.2623 83.528 37.1726 83.8727 37.0005C84.2174 36.8283 84.5173 36.5784 84.7488 36.2704L84.7508 36.2744ZM71.7508 37.8564C71.1335 37.8776 70.5183 37.7743 69.9419 37.5526C69.3654 37.331 68.8395 36.9955 68.3954 36.5662C67.9514 36.1369 67.5984 35.6226 67.3574 35.054C67.1164 34.4853 66.9924 33.874 66.9928 33.2564C67.0047 32.6113 67.1457 31.9752 67.4075 31.3855C67.6694 30.7959 68.0467 30.2647 68.5173 29.8233C68.9878 29.3819 69.5421 29.0393 70.1472 28.8157C70.7524 28.5921 71.3963 28.492 72.0408 28.5214C72.6512 28.5078 73.2582 28.6171 73.8256 28.8427C74.393 29.0684 74.9093 29.4058 75.3437 29.8349C75.7781 30.264 76.1218 30.7761 76.3544 31.3406C76.5871 31.9052 76.7038 32.5108 76.6978 33.1214C76.6945 33.7603 76.5627 34.392 76.3102 34.9789C76.0578 35.5659 75.6898 36.096 75.2282 36.5378C74.7667 36.9796 74.2209 37.324 73.6235 37.5505C73.0261 37.7771 72.3892 37.8811 71.7508 37.8564V37.8564ZM74.1868 36.2774C74.6121 35.6386 74.8175 34.8785 74.7718 34.1124C74.7718 32.3974 73.9528 29.1234 71.5358 29.1234C70.8911 29.1295 70.2697 29.3649 69.7828 29.7874C69.4648 30.0915 69.219 30.4629 69.0632 30.8744C68.9075 31.2858 68.8458 31.727 68.8828 32.1654C68.8828 34.0934 69.8368 37.2654 72.1958 37.2654C72.5812 37.2652 72.9613 37.1755 73.3061 37.0034C73.6509 36.8312 73.951 36.5813 74.1828 36.2734L74.1868 36.2774ZM65.5068 37.5504L62.7068 38.1964C61.6397 38.3909 60.5591 38.5019 59.4748 38.5284C54.0668 38.5284 52.0098 34.5514 52.0098 31.4364C52.0098 27.6364 54.9278 24.1094 59.9258 24.1094C60.9397 24.1112 61.9487 24.2494 62.9258 24.5204C63.8568 24.7591 64.7345 25.1713 65.5128 25.7354L63.8858 27.2834L63.2008 27.4394L63.6908 26.6554C63.161 26.0704 62.5137 25.604 61.791 25.2867C61.0684 24.9694 60.2869 24.8085 59.4978 24.8144C56.3978 24.8144 54.0708 27.1664 54.0708 30.5944C54.041 31.5234 54.1984 32.4489 54.5337 33.3159C54.869 34.1828 55.3753 34.9734 56.0225 35.6406C56.6696 36.3078 57.4444 36.838 58.3007 37.1996C59.157 37.5612 60.0773 37.7468 61.0068 37.7454C61.8592 37.7655 62.7057 37.5986 63.4868 37.2564V34.0994L60.5288 34.2564L62.0958 33.4134H66.2508L65.7418 33.9024C65.6885 33.9377 65.6431 33.9838 65.6087 34.0377C65.5742 34.0916 65.5515 34.1521 65.5418 34.2154C65.5218 34.3924 65.5028 34.9614 65.5028 35.1574V37.5484L65.5068 37.5504Z" fill="white"/>
<path d="M100.794 36.9859C100.147 36.9269 100.011 36.8099 100.011 36.0439V24.9549L100.022 24.8279C100.101 24.1429 100.297 24.0279 100.905 23.6719H98.1048L96.6348 24.3769H98.1348V36.4769C98.1348 36.8669 98.0578 36.9279 97.6068 37.5149H101.075L101.8 37.0849C101.465 37.0469 101.132 37.0279 100.8 36.9849L100.794 36.9859ZM108.766 37.1669C108.553 37.2849 108.338 37.4209 108.125 37.5169C107.529 37.7743 106.885 37.9005 106.236 37.8869C105.313 37.9284 104.402 37.6614 103.648 37.1279C103.017 36.6478 102.509 36.0256 102.164 35.3119C101.819 34.5983 101.648 33.8133 101.664 33.0209C101.652 32.4308 101.76 31.8445 101.979 31.2967C102.199 30.7488 102.526 30.2506 102.941 29.8316C103.357 29.4125 103.852 29.0811 104.398 28.857C104.944 28.6329 105.53 28.5206 106.12 28.5269C106.824 28.5188 107.517 28.7075 108.12 29.0719C108.8 29.5182 109.286 30.2062 109.48 30.9969L104.909 32.8459L103.409 32.9629C103.894 35.4349 105.568 36.8729 107.417 36.8729C108.252 36.847 109.068 36.6133 109.791 36.1929L108.759 37.1669H108.766ZM106.938 31.3669C107.307 31.2309 107.502 31.1139 107.502 30.8419C107.439 30.3762 107.209 29.9492 106.854 29.6411C106.5 29.3329 106.045 29.1647 105.575 29.1679C105.247 29.1874 104.926 29.2742 104.632 29.4229C104.339 29.5715 104.079 29.7789 103.87 30.032C103.66 30.2852 103.504 30.5788 103.413 30.8946C103.321 31.2104 103.295 31.5417 103.337 31.8679C103.337 32.1989 103.376 32.5489 103.396 32.8999L106.939 31.3619L106.938 31.3669ZM110.643 28.6599V29.9439H110.487V28.6599H110.062V28.5269H111.067V28.6599H110.648H110.643ZM112.394 29.9439V28.6439H112.387L111.987 29.9439H111.865L111.465 28.6439H111.46V29.9439H111.318V28.5269H111.561L111.923 29.6719L112.279 28.5269H112.525V29.9439H112.394Z" fill="white"/>
</svg>
